# xmcd CD database file
#
# Track frame offsets:
#	150
#	24056
#	41467
#	65121
#	81020
#	99223
#	111652
#	132890
#	154334
#	178528
#	197606
#	218308
#	239460
#	264549
#	284626
#	311816
#
# Disc length: 4417 seconds
#
# Revision: 4
# Processed by: cddbd v1.5.1PL2 Copyright (c) Steve Scherf et al.
# Submitted via: CDex 1.70beta2
#
DISCID=de113f10
DTITLE=许巍 - 那一年
DYEAR=2000
DGENRE=Blues
TTITLE0=今夜
TTITLE1=简单
TTITLE2=故乡
TTITLE3=九月
TTITLE4=方向
TTITLE5=浮躁
TTITLE6=温暖
TTITLE7=闪亮的瞬间
TTITLE8=情人
TTITLE9=那一年
TTITLE10=我的秋天
TTITLE11=在别处
TTITLE12=我思念的城市
TTITLE13=树
TTITLE14=永恒
TTITLE15=遥远
EXTD=YEAR: 2000
EXTT0=
EXTT1=
EXTT2=
EXTT3=
EXTT4=
EXTT5=
EXTT6=
EXTT7=
EXTT8=
EXTT9=
EXTT10=
EXTT11=
EXTT12=
EXTT13=
EXTT14=
EXTT15=
PLAYORDER=
